<svg xmlns="http://www.w3.org/2000/svg" xmlns:xlink="http://www.w3.org/1999/xlink" width="16" height="17" viewBox="0 0 16 17" fill="none"><g opacity="1" transform="translate(0 0)  rotate(0 8 8)"><path id="形状" fill-rule="evenodd" style="fill:#FFFFFF" transform="translate(0 0)  rotate(0 8 8)" opacity="1" d="M14.22 14.2222L1.78 14.2222L1.78 7.11223C1.78 6.62223 1.38 6.22223 0.89 6.22223C0.4 6.22223 0 6.62223 0 7.11223L0 14.2222C0 15.2022 0.8 16.0022 1.78 16.0022L14.22 16.0022C15.2 16.0022 16 15.2022 16 14.2222L16 7.11223C16 6.62223 15.6 6.22223 15.11 6.22223C14.62 6.22223 14.22 6.62223 14.22 7.11223L14.22 14.2222Z M13.1908 3.55777L11.6108 1.81777C11.5908 1.79777 11.5208 1.77777 11.5208 1.77777L4.37081 1.77777C4.37081 1.77777 4.30081 1.79777 4.28081 1.81777L2.76081 3.55777L13.1908 3.55777Z M16 4.44L16 4.35C16 4.12 15.92 3.91 15.77 3.75L12.93 0.62C12.57 0.23 12.06 0 11.52 0L4.37 0C3.82 0 3.3 0.24 2.94 0.65L0.22 3.76C0.08 3.92 0 4.13 0 4.35L0 4.44C0 4.94 0.4 5.33 0.89 5.33L15.11 5.33C15.6 5.33 16 4.94 16 4.44Z M10.6644 10.6689C11.1544 10.6689 11.5544 10.2689 11.5544 9.7789C11.5544 9.2889 11.1544 8.8889 10.6644 8.8889L5.33444 8.8889C4.84444 8.8889 4.44444 9.2889 4.44444 9.7789C4.44444 10.2689 4.84444 10.6689 5.33444 10.6689L10.6644 10.6689Z " /></g></svg>