<svg xmlns="http://www.w3.org/2000/svg" xmlns:xlink="http://www.w3.org/1999/xlink" width="19" height="17" viewBox="0 0 19 17" fill="none"><g opacity="1" transform="translate(-0.00002182904411540676 -8.881784197001252e-16)  rotate(0 9.313732766544115 8.349096392463235)"><path id="形状" fill-rule="evenodd" style="fill:#FFFFFF" transform="translate(0 0)  rotate(0 9.313732766544115 8.349096392463235)" opacity="1" d="M2.17002 14.9046L3.68002 14.9046C4.19002 14.9046 4.61002 14.4846 4.61002 13.9746C4.61002 13.4546 4.19002 13.0346 3.68002 13.0346L2.17002 13.0346C2.01002 13.0346 1.86002 12.8846 1.86002 12.6646L1.86002 7.20461C1.86002 6.69461 1.45002 6.27461 0.930022 6.27461C0.420022 6.27461 2.1829e-05 6.69461 2.1829e-05 7.20461L2.1829e-05 12.6646C2.1829e-05 13.8946 0.960022 14.9046 2.17002 14.9046Z M0 2.24L0 3.8C0 4.31 0.42 4.73 0.93 4.73C1.45 4.73 1.86 4.31 1.86 3.8L1.86 2.24C1.86 2.02 2.01 1.86 2.17 1.86L9.81 1.86C10.21 1.86 10.57 2.13 10.69 2.52L11.22 4.2C11.33 4.56 11.65 4.82 12.03 4.85L15.81 5.16C16.28 5.2 16.65 5.59 16.66 6.07L16.76 12.68C16.76 12.88 16.62 13.04 16.45 13.04L14.62 13.04C14.1 13.04 13.69 13.46 13.69 13.97C13.69 14.48 14.1 14.9 14.62 14.9L16.45 14.9C17.66 14.9 18.63 13.89 18.63 12.67L18.53 6.04C18.5 4.6 17.39 3.42 15.96 3.3L12.81 3.04L12.47 1.96C12.11 0.8 11.03 0 9.81 0L2.17 0C0.96 0 0 1.01 0 2.24Z M8.36296 14.1721C8.36296 12.7822 7.24296 11.6421 5.85296 11.6421C4.47296 11.6421 3.35296 12.7822 3.35296 14.1721C3.35296 15.5622 4.47296 16.7022 5.85296 16.7022C7.24296 16.7022 8.36296 15.5622 8.36296 14.1721Z M6.4957 14.1749C6.4957 13.7949 6.2057 13.5049 5.8557 13.5049C5.5057 13.5049 5.2157 13.7949 5.2157 14.1749C5.2157 14.5449 5.5057 14.8349 5.8557 14.8349C6.2057 14.8349 6.4957 14.5449 6.4957 14.1749Z M12.961 16.7022C14.341 16.7022 15.461 15.5622 15.461 14.1721C15.461 12.7822 14.341 11.6421 12.961 11.6421C11.901 11.6421 11.001 12.3021 10.631 13.2422L7.68102 13.2422C7.17102 13.2422 6.75102 13.6522 6.75102 14.1721C6.75102 14.6821 7.17102 15.1021 7.68102 15.1021L10.631 15.1021C11.001 16.0322 11.901 16.7022 12.961 16.7022Z M13.5974 14.1749C13.5974 13.7949 13.3074 13.5049 12.9574 13.5049C12.6074 13.5049 12.3174 13.7949 12.3174 14.1749C12.3174 14.5449 12.6074 14.8349 12.9574 14.8349C13.3074 14.8349 13.5974 14.5449 13.5974 14.1749Z M12.0278 6.15374C11.6378 6.15374 11.3278 6.46374 11.3278 6.85374L11.3278 8.98374C11.3278 9.36374 11.6378 9.68374 12.0278 9.68374L14.1278 9.68374C14.5178 9.68374 14.8278 9.36374 14.8278 8.98374C14.8278 8.59374 14.5178 8.28374 14.1278 8.28374L12.7278 8.28374L12.7278 6.85374C12.7278 6.46374 12.4078 6.15374 12.0278 6.15374Z " /></g></svg>