<svg xmlns="http://www.w3.org/2000/svg" xmlns:xlink="http://www.w3.org/1999/xlink" width="24" height="23" viewBox="0 0 24 23" fill="none"><g opacity="1" transform="translate(9.155273517080786e-7 0)  rotate(0 11.75 11.160624749999998)"><g opacity="1" transform="translate(0 0)  rotate(0 11.75 11.160624749999998)"><path id="路径" fill-rule="evenodd" style="fill:#333333" transform="translate(0 0.002812499999999042)  rotate(0 11.75 11.1592185)" opacity="1" d="M3.79 0C1.7 0 0 1.62 0 3.6L0 18.72C0 20.7 1.7 22.32 3.79 22.32L19.71 22.32C21.8 22.32 23.5 20.7 23.5 18.72L23.5 3.6C23.5 1.62 21.8 0 19.71 0L3.79 0Z M3.79472 1.83766C2.81472 1.83766 2.01472 2.55766 1.94472 3.46766L1.93472 18.7177C1.93472 19.6377 2.69472 20.4077 3.64472 20.4777L19.7047 20.4777C20.6847 20.4777 21.4847 19.7677 21.5547 18.8577L21.5647 3.59766C21.5647 2.67766 20.8047 1.91766 19.7047 1.83766L3.79472 1.83766Z " /><path id="路径" fill-rule="evenodd" style="fill:#333333" transform="translate(6.977500000000001 0)  rotate(0 5 8)" opacity="1" d="M0 14.72C0 15.19 0.24 15.62 0.62 15.84C1.01 16.07 1.48 16.05 1.85 15.8L5 13.67L8.15 15.8C8.34 15.93 8.57 16 8.79 16C8.99 16 9.19 15.95 9.38 15.84C9.76 15.61 10 15.18 10 14.72L10 1.28C10 0.58 9.46 0 8.79 0L1.21 0C0.54 0 0 0.57 0 1.28L0 14.72Z M2 2L2 13L3.98 11.67C4.56 11.29 5.29 11.26 5.88 11.59L6.02 11.67L8 13L8 2L2 2Z " /><path id="形状" fill-rule="evenodd" style="fill:#333333" transform="translate(0.002812500000001293 6.935625)  rotate(0 11.65921875 0.96)" opacity="1" d="M7.87 0.96C7.87 0.43 7.31 0 6.61 0L1.26 0C0.56 0 0 0.43 0 0.96C0 1.49 0.56 1.92 1.26 1.92L6.61 1.92C7.31 1.92 7.87 1.49 7.87 0.96Z M23.3234 0.96C23.3234 0.43 22.7534 0 22.0534 0L16.5834 0C15.8934 0 15.3234 0.43 15.3234 0.96C15.3234 1.49 15.8834 1.92 16.5834 1.92L22.0534 1.92C22.7534 1.92 23.3234 1.49 23.3234 0.96Z " /></g></g></svg>