<svg xmlns="http://www.w3.org/2000/svg" xmlns:xlink="http://www.w3.org/1999/xlink" width="27" height="23" viewBox="0 0 27 23" fill="none"><g opacity="1" transform="translate(7.629394414010449e-7 0.0001953124998177458)  rotate(0 13.016015625000005 11.47734375)"><g opacity="1" transform="translate(0 0)  rotate(0 13.016015625000005 11.47734375)"><path id="路径" fill-rule="evenodd" style="fill:#333333" transform="translate(0 0)  rotate(0 11.2048828125 11.47734375)" opacity="1" d="M2.03,3.31C2.03,2.6 2.66,2.03 3.43,2.03L18.99,2.03C19.75,2.03 20.38,2.6 20.38,3.31L20.38,6.33C20.38,6.89 20.83,7.35 21.39,7.35C21.95,7.35 22.41,6.89 22.41,6.33L22.41,3.31C22.41,1.49 20.88,0 18.99,0L3.43,0C1.54,0 0,1.49 0,3.31L0,19.65C0,21.47 1.54,22.95 3.43,22.95L18.98,22.95C20.87,22.95 22.41,21.47 22.41,19.65L22.41,16.41C22.41,15.85 21.95,15.4 21.39,15.4C20.83,15.4 20.38,15.85 20.38,16.41L20.38,19.65C20.38,20.36 19.75,20.92 18.99,20.92L3.43,20.92C2.66,20.92 2.03,20.36 2.03,19.65L2.03,3.31Z " /><path id="形状" fill-rule="evenodd" style="fill:#333333" transform="translate(7.947070312500012 6.241210937500364)  rotate(0 9.04248046875 5.25)" opacity="1" d="M5.64 0C2.53 0 0 2.36 0 5.25C0 8.14 2.53 10.5 5.64 10.5L14.36 10.5C16.42 10.5 18.08 8.94 18.08 7.04L18.08 3.47C18.08 1.56 16.42 0 14.36 0L5.64 0Z M5.64 8.5L14.36 8.5C15.29 8.5 16 7.88 16.08 7.16L16.08 7.04L16.08 3.47C16.08 2.74 15.42 2.08 14.52 2.01L14.36 2L5.64 2C3.61 2 2 3.49 2 5.25C2 6.95 3.5 8.4 5.44 8.49L5.64 8.5Z " /><path id="路径" fill-rule="evenodd" style="fill:#333333" transform="translate(12.291796875000012 10.141210937500002)  rotate(0 1.3359375000000004 1.3359375)" opacity="1" d="M1.34,2.67C2.07,2.67 2.67,2.07 2.67,1.34C2.67,0.6 2.07,0 1.34,0C0.6,0 0,0.6 0,1.34C0,2.07 0.6,2.67 1.34,2.67Z " /></g></g></svg>