<svg xmlns="http://www.w3.org/2000/svg" xmlns:xlink="http://www.w3.org/1999/xlink" width="35" height="35" viewBox="0 0 35 35" fill="none"><defs><linearGradient id="linear_0" x1="12.315939544464527%" y1="10.978868882861459%" x2="90.72829400373621%" y2="84.3376334158954%" gradientUnits="objectBoundingBox"><stop offset="0" stop-color="#00E5FF" stop-opacity="1" /><stop offset="1" stop-color="#0072FE" stop-opacity="1" /></linearGradient><linearGradient id="linear_1" x1="16.84057993969077%" y1="10.995869682597448%" x2="93.61313304173109%" y2="96.06634037358202%" gradientUnits="objectBoundingBox"><stop offset="0" stop-color="#00A1FF" stop-opacity="1" /><stop offset="1" stop-color="#006DFD" stop-opacity="1" /></linearGradient></defs><g opacity="1" transform="translate(0 0)  rotate(0 17.5 17.5)"><g opacity="1" transform="translate(8 6)  rotate(0 10.5 12)"><path id="矩形" fill-rule="evenodd" fill="url(#linear_0)" transform="translate(0 0)  rotate(0 10.4 11.975757575757575)" opacity="1" d="M0.95,23.95L19.85,23.95C20.37,23.95 20.8,23.53 20.8,23.01L20.8,2.19C20.8,2.01 20.7,1.83 20.54,1.75C19.67,1.31 16.55,0 10.4,0C4.49,0 1.39,1.21 0.38,1.69C0.14,1.81 0,2.05 0,2.31L0,23.01C0,23.53 0.43,23.95 0.95,23.95Z " /><path id="矩形" fill-rule="evenodd" fill="url(#linear_1)" transform="translate(1.890909090909091 1.975715969897101)  rotate(0 8.50909090909091 10.04244504535445)" opacity="1" d="M1.58,20.08L15.44,20.08C16.31,20.08 17.02,19.38 17.02,18.51L17.02,1.68C17.02,1.19 16.66,0.76 16.18,0.68C14.94,0.47 12.64,0.09 11.52,0C11.37,-0.01 11.01,0.43 10.75,0.79C10.57,1.05 10.27,1.21 9.95,1.21L7.06,1.21C6.76,1.21 6.47,1.06 6.29,0.82C6.02,0.46 5.62,-0.01 5.45,0C4.39,0.09 2.25,0.44 0.99,0.66C0.42,0.75 0,1.25 0,1.83L0,18.51C0,19.38 0.71,20.08 1.58,20.08Z " /><path id="路径 12" fill-rule="evenodd" style="fill:#F6FAFF" transform="translate(5.798787878788053 14.52177736447352)  rotate(0 4.596769957167206 2.5543229878784723)" opacity="1" d="M5.07,4.59L8.01,1.31C8.22,1.08 8.27,0.75 8.14,0.46C8.01,0.18 7.73,0 7.42,0L1.77,0C1.46,0 1.18,0.18 1.05,0.46C0.92,0.75 0.97,1.08 1.18,1.31L4.13,4.59C4.25,4.72 4.42,4.8 4.6,4.8C4.78,4.8 4.95,4.72 5.07,4.59Z " /></g></g></svg>