<svg xmlns="http://www.w3.org/2000/svg" xmlns:xlink="http://www.w3.org/1999/xlink" width="109" height="125" viewBox="0 0 109 125" fill="none"><g opacity="1" transform="translate(0 0)  rotate(0 54.5 62.5)"><g opacity="1" transform="translate(0 0)  rotate(0 54.5 62.5)"><g opacity="1" transform="translate(0 0)  rotate(0 54.5 62.5)"><path id="Path" fill-rule="evenodd" style="fill:#C6DCD5" transform="translate(6 3)  rotate(0 51.5 61)" opacity="1" d="M103,114.55L103,7.45C103,3.33 99.67,0 95.57,0L7.43,0C3.33,0 0,3.33 0,7.45L0,114.55C0,118.67 3.33,122 7.43,122L95.57,122C99.67,122 103,118.67 103,114.55Z " /><path id="Path" fill-rule="evenodd" style="fill:#C6DCD5" transform="translate(6 100)  rotate(0 51.5 12.5)" opacity="1" d="M0,17.88C0,21.81 3.33,25 7.43,25L95.57,25C99.67,25 103,21.81 103,17.88L103,0L0,0L0,17.88Z " /><path id="Path" fill-rule="evenodd" style="fill:#FFFFFF" transform="translate(11 8)  rotate(0 46.5 55.5)" opacity="1" d="M93,104.27L93,6.73C93,3.01 90,0 86.29,0L6.71,0C3,0 0,3.01 0,6.73L0,104.27C0,107.99 3,111 6.71,111L86.29,111C90,111 93,107.99 93,104.27Z " /><path id="Path" fill-rule="evenodd" style="fill:#DAE8E3" transform="translate(0 90)  rotate(0 49 14.5)" opacity="1" d="M6.71,0C3.01,0 0,3.05 0,6.8L0,15.77C0,23.08 5.85,29 13.05,29L98,29C95.25,29 93.02,26.74 93.02,23.95L93.02,6.8C93.02,3.05 90.01,0 86.31,0L6.71,0Z " /><g opacity="1" transform="translate(22 45)  rotate(0 35.5 17.5)"><path id="Path" fill-rule="evenodd" style="fill:#EBF5F3" transform="translate(0 4.527489494421388e-13)  rotate(0 35.5 2)" opacity="1" d="M0,4L71,4L71,0L0,0L0,4Z " /><path id="Path" fill-rule="evenodd" style="fill:#EBF5F3" transform="translate(0 16.00000000000065)  rotate(0 35.5 2)" opacity="1" d="M0,4L71,4L71,0L0,0L0,4Z " /><path id="Path" fill-rule="evenodd" style="fill:#EBF5F3" transform="translate(2.842170943040401e-14 31.00000000000053)  rotate(0 28 2)" opacity="1" d="M0,4L56,4L56,0L0,0L0,4Z " /></g><path id="Path" fill-rule="evenodd" style="fill:#EBF5F3" transform="translate(38 13)  rotate(0 19 6.5)" opacity="1" d="M3.93,0L0,0L0,3.97C0,8.95 3.88,13 8.65,13L29.35,13C34.12,13 38,8.95 38,3.97L38,0L34.07,0L34.07,3.97C34.07,6.68 31.95,8.89 29.35,8.89L8.65,8.89C6.05,8.89 3.93,6.68 3.93,3.97L3.93,0Z " /><path id="Path" fill-rule="evenodd" style="fill:#A2C3B8" transform="translate(36 0)  rotate(0 21.5 7)" opacity="1" d="M43,9.77L43,4.23C43,1.9 41.1,0 38.75,0L4.25,0C1.9,0 0,1.9 0,4.23L0,9.77C0,12.11 1.9,14 4.25,14L38.75,14C41.1,14 43,12.11 43,9.77Z " /></g></g></g></svg>