<svg xmlns="http://www.w3.org/2000/svg" xmlns:xlink="http://www.w3.org/1999/xlink" width="24" height="23" viewBox="0 0 24 23" fill="none"><g opacity="1" transform="translate(0.0000013078962410872919 0.00020926339304416786)  rotate(0 11.979910714285715 11.33303571428571)"><g opacity="1" transform="translate(0 0)  rotate(0 11.979910714285715 11.33303571428571)"><path id="路径" fill-rule="evenodd" style="fill:#333333" transform="translate(0 0)  rotate(0 11.979910714285715 11.33303571428571)" opacity="1" d="M9.47 21.6L9.62 21.75C10.25 22.34 11.06 22.66 11.92 22.67L12.15 22.66C13 22.61 13.78 22.24 14.38 21.63L16.45 19.47L20.56 19.47L20.75 19.47C22.54 19.37 23.96 17.89 23.96 16.08L23.96 3.4L23.96 3.21C23.86 1.42 22.37 0 20.56 0L3.4 0L3.21 0C1.42 0.1 0 1.59 0 3.4L0 16.07L0 16.26C0.1 18.05 1.59 19.47 3.4 19.47L7.46 19.47L9.47 21.6Z M12.7592 20.2692L14.9392 18.0192C15.2892 17.6492 15.7592 17.4292 16.2592 17.3792L16.4492 17.3692L20.5092 17.3692L20.6392 17.3692C21.2692 17.3392 21.7892 16.8292 21.8492 16.2092L21.8592 3.44923C21.8192 2.68923 21.3192 2.16923 20.6892 2.10923L20.5692 2.09923L3.44923 2.09923L3.32923 2.09923C2.68923 2.13923 2.16923 2.63923 2.10923 3.26923L2.09923 3.39923L2.09923 16.0192L2.09923 16.1492C2.13923 16.7892 2.63923 17.2992 3.26923 17.3692L3.39923 17.3692L7.45923 17.3692C7.97923 17.3692 8.46923 17.5592 8.84923 17.8992L8.98923 18.0292L10.9492 20.1192C11.2692 20.4092 11.5092 20.5292 11.7492 20.5592L12.0192 20.5592C12.2992 20.5492 12.5492 20.4492 12.7592 20.2692Z " /><path id="路径" fill-rule="evenodd" style="fill:#333333" transform="translate(7.098561844690125 8.050526130404153)  rotate(0 4.896081012452701 2.1644199058079145)" opacity="1" d="M0.2,1.67C1.44,3.41 3.03,4.33 4.9,4.33C6.76,4.33 8.35,3.41 9.59,1.67C9.93,1.2 9.83,0.54 9.35,0.2C8.88,-0.14 8.22,-0.03 7.88,0.44C7.01,1.66 6.04,2.22 4.9,2.22C3.76,2.22 2.78,1.66 1.91,0.44C1.58,-0.03 0.92,-0.14 0.44,0.2C-0.03,0.54 -0.14,1.2 0.2,1.67Z " /></g></g></svg>