<svg xmlns="http://www.w3.org/2000/svg" xmlns:xlink="http://www.w3.org/1999/xlink" width="26" height="23" viewBox="0 0 26 23" fill="none"><g opacity="1" transform="translate(0 0)  rotate(0 12.85595703125 11.095703125)"><g opacity="1" transform="translate(0 0)  rotate(0 12.85595703125 11.095703125)"><path id="形状结合" fill-rule="evenodd" style="fill:#FFFFFF" transform="translate(4.96484375 15.7724609375)  rotate(0 7.904296875 2.5546875000000036)" opacity="1" d="M0 2.55C0 1.14 1.14 0 2.55 0C3.97 0 5.11 1.14 5.11 2.55C5.11 3.97 3.97 5.11 2.55 5.11C1.14 5.11 0 3.97 0 2.55Z M10.6992 2.55C10.6992 1.14 11.8392 0 13.2492 0C14.6692 0 15.8092 1.14 15.8092 2.55C15.8092 3.97 14.6692 5.11 13.2492 5.11C11.8392 5.11 10.6992 3.97 10.6992 2.55Z " /><path id="路径" fill-rule="evenodd" style="fill:#333333" transform="translate(3.655266034581384 14.462890625)  rotate(0 3.864261513959308 3.8642578125)" opacity="1" d="M1.77636e-15 3.86C1.77636e-15 5.99 1.73 7.73 3.86 7.73C5.99 7.73 7.73 5.99 7.73 3.86C7.73 1.73 5.99 0 3.86 0C1.73 0 1.77636e-15 1.73 1.77636e-15 3.86Z M2 3.86C2 4.89 2.84 5.73 3.86 5.73C4.89 5.73 5.73 4.89 5.73 3.86C5.73 2.84 4.89 2 3.86 2C2.84 2 2 2.84 2 3.86Z " /><path id="路径" fill-rule="evenodd" style="fill:#333333" transform="translate(14.3515625 14.462890625)  rotate(0 3.865722656249999 3.8642578125)" opacity="1" d="M0 3.86C0 5.99 1.73 7.73 3.87 7.73C6 7.73 7.73 5.99 7.73 3.86C7.73 1.73 6 0 3.87 0C1.74 0 0 1.73 0 3.86Z M2 3.86C2 4.89 2.84 5.73 3.87 5.73C4.89 5.73 5.73 4.89 5.73 3.86C5.73 2.84 4.89 2 3.87 2C2.84 2 2 2.84 2 3.86Z " /><path id="路径" fill-rule="evenodd" style="fill:#333333" transform="translate(10.1162109375 17.2646484375)  rotate(0 2.75 1.059570312500002)" opacity="1" d="M0.62,0.01C0.29,0.07 0,0.51 0,1.06C0,1.66 0.34,2.12 0.71,2.12L4.79,2.12L4.88,2.11C5.21,2.05 5.5,1.61 5.5,1.06C5.5,0.46 5.16,0 4.79,0L0.71,0L0.62,0.01Z " /><path id="路径" fill-rule="evenodd" style="fill:#333333" transform="translate(14.912098436375414 6.357421875)  rotate(0 3.350591406812293 3.0107421875000004)" opacity="1" d="M2.12,1.06L2.11,0.94C2.06,0.41 1.61,0 1.06,0C0.47,0 0,0.47 0,1.06L0,4.96L0.01,5.08C0.06,5.61 0.51,6.02 1.06,6.02L5.64,6.02L5.76,6.02C6.29,5.96 6.7,5.51 6.7,4.96C6.7,4.38 6.23,3.9 5.64,3.9L2.12,3.9L2.12,1.06Z " /><path id="路径" fill-rule="evenodd" style="fill:#333333" transform="translate(0 0)  rotate(0 12.85595703125 9.69189453125)" opacity="1" d="M17.03,2.29C17.03,1.03 16,0 14.74,0L3.42,0C1.54,0 0,1.53 0,3.42L0,15.97C0,17.85 1.54,19.38 3.42,19.38L3.96,19.38C4.55,19.38 5.02,18.91 5.02,18.32C5.02,17.74 4.55,17.27 3.96,17.27L3.42,17.27C2.7,17.27 2.12,16.68 2.12,15.97L2.12,3.42C2.12,2.7 2.7,2.12 3.42,2.12L14.91,2.12L14.91,4.08C14.91,4.67 15.38,5.14 15.97,5.14L19.96,5.14L23.55,9.74L23.6,9.89L23.59,15.96C23.59,16.68 23.01,17.26 22.29,17.26L21.77,17.26C21.18,17.26 20.71,17.74 20.71,18.32C20.71,18.91 21.18,19.38 21.77,19.38L22.29,19.38C24.18,19.38 25.71,17.85 25.71,15.96L25.71,9.85C25.71,9.34 25.55,8.85 25.25,8.46L21.82,3.93C21.4,3.36 20.72,3.02 19.99,3.02L17.03,3.02L17.03,2.29Z " /></g></g></svg>