<svg xmlns="http://www.w3.org/2000/svg" xmlns:xlink="http://www.w3.org/1999/xlink" width="35" height="35" viewBox="0 0 35 35" fill="none"><defs><linearGradient id="linear_0" x1="50%" y1="0%" x2="51%" y2="100%" gradientUnits="objectBoundingBox"><stop offset="0" stop-color="#975FF8" stop-opacity="1" /><stop offset="1" stop-color="#4F46EB" stop-opacity="1" /></linearGradient><linearGradient id="linear_1" x1="22.071448536658522%" y1="10.826223734472595%" x2="50%" y2="100%" gradientUnits="objectBoundingBox"><stop offset="0" stop-color="#B57EFD" stop-opacity="1" /><stop offset="1" stop-color="#745EFD" stop-opacity="1" /></linearGradient></defs><g opacity="1" transform="translate(0 0)  rotate(0 17.5 17.5)"><g opacity="1" transform="translate(5 4)  rotate(0 12 13.5)"><path id="椭圆形" fill-rule="evenodd" fill="url(#linear_0)" transform="translate(0 8.689655172413794)  rotate(0 7.29310344827586 8.55170420537455)" opacity="1" d="M10.06,15.04C13.08,12.17 14.59,9.46 14.59,6.89C14.59,3.09 11.32,0 7.29,0C3.27,0 0,3.09 0,6.89C0,9.97 2.16,13.26 6.49,16.75L6.66,16.88C7.03,17.18 7.56,17.18 7.93,16.88C8.32,16.57 8.69,16.26 9.04,15.95L9.34,15.69C9.49,15.56 9.64,15.43 9.78,15.3L10.06,15.04Z " /><path id="椭圆形" fill-rule="evenodd" fill="url(#linear_1)" transform="translate(2.172413793104577 0)  rotate(0 10.70689655172414 13.36275028165925)" opacity="1" d="M21.41,10.71C21.41,4.79 16.62,0 10.71,0C4.79,0 0,4.79 0,10.71C0,15.09 2.67,19.74 8.01,24.67L8.37,25C8.86,25.45 9.37,25.89 9.91,26.34L10.11,26.51C10.46,26.8 10.96,26.8 11.3,26.51C12.45,25.55 13.5,24.61 14.45,23.67L14.78,23.34C19.2,18.9 21.41,14.69 21.41,10.71Z " /><path id="椭圆形" fill-rule="evenodd" style="fill:#F2EDFE" transform="translate(9.310344827586206 7.137931034482759)  rotate(0 3.5689655172413794 3.5689655172413794)" opacity="1" d="M7.14,3.57C7.14,1.6 5.54,0 3.57,0C1.6,0 0,1.6 0,3.57C0,5.54 1.6,7.14 3.57,7.14C5.54,7.14 7.14,5.54 7.14,3.57Z " /></g></g></svg>