<svg xmlns="http://www.w3.org/2000/svg" xmlns:xlink="http://www.w3.org/1999/xlink" width="18" height="18" viewBox="0 0 18 18" fill="none"><g opacity="1" transform="translate(0.000029184097911638673 0.000049864244829223026)  rotate(0 8.82406645562387 8.82355767252014)"><path id="形状" fill-rule="evenodd" style="fill:#FEFFFE" transform="translate(0 0)  rotate(0 8.82406645562387 8.82355767252014)" opacity="1" d="M13.99 13.64C11.33 16.49 6.86 16.64 4.01 13.99C1.16 11.33 1 6.86 3.66 4.01C6.32 1.16 10.79 1 13.64 3.66C13.99 3.99 14.55 3.97 14.88 3.62C15.22 3.26 15.2 2.7 14.84 2.37C11.28 -0.95 5.69 -0.76 2.37 2.81C-0.95 6.37 -0.76 11.95 2.81 15.28C6.37 18.6 11.95 18.41 15.28 14.84C17.64 12.31 18.28 8.67 17.01 5.51C16.82 5.06 16.31 4.84 15.86 5.03C15.41 5.21 15.19 5.72 15.37 6.17C16.39 8.7 15.88 11.61 13.99 13.64Z M12.2254 11.7781C12.6654 11.9881 13.1954 11.8081 13.4054 11.3681C13.6154 10.9281 13.4354 10.3981 12.9954 10.1881L9.90541 8.69807L9.90541 4.69807C9.90541 4.20807 9.51541 3.81807 9.02541 3.81807C8.54541 3.81807 8.14541 4.20807 8.14541 4.69807L8.14541 9.24807C8.14541 9.58807 8.33541 9.89807 8.64541 10.0381L12.2254 11.7781Z " /></g></svg>