<svg xmlns="http://www.w3.org/2000/svg" xmlns:xlink="http://www.w3.org/1999/xlink" width="19" height="12" viewBox="0 0 19 12" fill="none"><defs><linearGradient id="linear_0" x1="100%" y1="0%" x2="0%" y2="100%" gradientUnits="objectBoundingBox"><stop offset="0" stop-color="#F55726" stop-opacity="1" /><stop offset="1" stop-color="#FBA808" stop-opacity="1" /></linearGradient></defs><g opacity="1" transform="translate(0.0004922594285261539 -0.00018701605404025656)  rotate(0 9.19581276744776 5.54472660413675)"><path id="形状" fill-rule="evenodd" fill="url(#linear_0)" transform="translate(0 0)  rotate(0 9.19581276744776 5.54472660413675)" opacity="1" d="M13.7342 4.31434C12.5242 4.98434 12.3542 6.99434 13.3642 8.80434C14.3642 10.6143 16.1542 11.5443 17.3642 10.8743C18.5742 10.2043 18.7342 8.19434 17.7342 6.38434C16.7342 4.56434 14.9342 3.64434 13.7342 4.31434Z M1.5 0.32C-0.31 1.32 -0.51 4.42 1.05 7.24C2.61 10.05 5.35 11.52 7.16 10.52C8.97 9.52 9.17 6.42 7.61 3.6C6.05 0.78 3.31 -0.69 1.5 0.32Z " /></g></svg>