<svg xmlns="http://www.w3.org/2000/svg" xmlns:xlink="http://www.w3.org/1999/xlink" width="20" height="12" viewBox="0 0 20 12" fill="none"><defs><linearGradient id="linear_0" x1="1.1102230246251565e-14%" y1="100%" x2="99.99999999999999%" y2="3.749399456654644e-31%" gradientUnits="objectBoundingBox"><stop offset="0" stop-color="#F55726" stop-opacity="1" /><stop offset="1" stop-color="#FBA808" stop-opacity="1" /></linearGradient></defs><g opacity="1" transform="translate(2.3872721799378382e-8 -0.00018701605404025656)  rotate(0 9.978687917861915 5.54472660413675)"><path id="形状" fill-rule="evenodd" fill="url(#linear_0)" transform="translate(0 0)  rotate(0 9.978687917861915 5.54472660413675)" opacity="1" d="M1.03 10.8743C2.23 11.5443 4.03 10.6143 5.03 8.80434C6.03 6.99434 5.87 4.98434 4.66 4.31434C3.45 3.64434 1.66 4.56434 0.66 6.38434C-0.35 8.19434 -0.18 10.2043 1.03 10.8743Z M12.7958 10.52C14.6058 11.52 17.3458 10.05 18.9058 7.24C20.4658 4.42 20.2658 1.32 18.4558 0.32C16.6458 -0.69 13.9058 0.78 12.3458 3.6C10.7858 6.42 10.9858 9.52 12.7958 10.52Z " /></g></svg>