<svg xmlns="http://www.w3.org/2000/svg" xmlns:xlink="http://www.w3.org/1999/xlink" width="25" height="24" viewBox="0 0 25 24" fill="none"><g opacity="1" transform="translate(0 0)  rotate(0 12.396695248000665 12)"><g opacity="1" transform="translate(0 0)  rotate(0 12.396695248000665 12)"><path id="形状" fill-rule="evenodd" style="fill:#333333" transform="translate(0 0)  rotate(0 12.396695248000665 12)" opacity="1" d="M17.21 22.9079C17.21 22.9079 17.29 22.8779 17.32 22.8579C17.8 22.5879 17.96 21.9779 17.69 21.5079C17.38 20.9579 16.72 20.7279 16.13 20.9579C15.08 21.3779 14.24 21.6279 13.6 21.7079C10.84 22.0579 8.05 21.1979 5.94 19.3279C2.89 16.6079 1.85 12.2879 3.3 8.48788L3.42 8.20788L3.56 8.15788L4.9 8.93788L4.72 3.57788L0 6.09788L1.46 6.93788L1.5 7.06788C-1.02 12.6579 1.09 19.2979 6.42 22.3879C8.88 23.8179 11.74 24.3079 14.51 23.8079C15.18 23.6879 16.08 23.3879 17.21 22.9079Z M23.3344 17.06L23.2944 16.93C25.7644 11.44 23.7744 4.93 18.6444 1.77L18.3744 1.61C16.0344 0.25 13.3144 -0.26 10.6644 0.13C9.90444 0.24 8.87444 0.56 7.58444 1.1L7.47444 1.15C6.99444 1.42 6.83444 2.02 7.10444 2.49C7.41444 3.04 8.07444 3.27 8.65444 3.03C9.60444 2.65 10.3544 2.42 10.9344 2.33C13.7744 1.9 16.6844 2.74 18.8644 4.68C21.9144 7.39 22.9444 11.72 21.4944 15.52L21.3744 15.79L21.2344 15.84L19.8944 15.06L20.0744 20.42L24.7944 17.91L23.3344 17.06Z M15.2278 7.84506C14.8878 7.51506 14.3478 7.48506 13.9878 7.77506L13.8978 7.84506L12.4578 9.26506L12.3378 9.26506L10.8978 7.84506L10.8078 7.77506C10.4478 7.48506 9.9078 7.51506 9.5678 7.84506C9.2278 8.17506 9.2078 8.70506 9.4978 9.06506L9.5678 9.14506L11.0178 10.5651L10.9578 10.7151L9.3378 10.7151C8.8178 10.7151 8.3978 11.1251 8.3978 11.6351C8.3978 12.1051 8.7678 12.4951 9.2378 12.5451L9.3378 12.5551L11.3778 12.5551L11.4578 12.6351L11.4578 13.6451L11.3778 13.7251L9.3378 13.7251C8.8178 13.7251 8.3978 14.1351 8.3978 14.6451C8.3978 15.1251 8.7678 15.5151 9.2378 15.5651L9.3378 15.5651L11.3778 15.5651L11.4578 15.6451L11.4578 16.6551C11.4578 17.1651 11.8778 17.5751 12.3978 17.5751C12.8778 17.5751 13.2778 17.2151 13.3278 16.7551L13.3378 16.6551L13.3378 15.6451L13.4178 15.5651L15.4578 15.5651C15.9778 15.5651 16.3978 15.1551 16.3978 14.6451C16.3978 14.1751 16.0278 13.7851 15.5578 13.7351L15.4578 13.7251L13.4178 13.7251L13.3378 13.6451L13.3378 12.6351L13.4178 12.5551L15.4578 12.5551C15.9778 12.5551 16.3978 12.1451 16.3978 11.6351C16.3978 11.1551 16.0278 10.7651 15.5578 10.7151L15.4578 10.7151L13.8378 10.7151L13.7778 10.5651L15.2278 9.14506C15.5678 8.81506 15.5878 8.28506 15.2978 7.92506L15.2278 7.84506Z " /></g></g></svg>