<svg xmlns="http://www.w3.org/2000/svg" xmlns:xlink="http://www.w3.org/1999/xlink" width="35" height="35" viewBox="0 0 35 35" fill="none"><defs><linearGradient id="linear_0" x1="5.1709874614886076%" y1="11.896912886746769%" x2="50%" y2="55.40901354162564%" gradientUnits="objectBoundingBox"><stop offset="0" stop-color="#FFAE14" stop-opacity="1" /><stop offset="1" stop-color="#FF8C00" stop-opacity="1" /></linearGradient><linearGradient id="linear_1" x1="9.108742678299109%" y1="17.182876810110592%" x2="92.96598335082251%" y2="87.01998328174021%" gradientUnits="objectBoundingBox"><stop offset="0" stop-color="#FFDB26" stop-opacity="1" /><stop offset="1" stop-color="#FF8C00" stop-opacity="1" /></linearGradient><linearGradient id="linear_2" x1="50%" y1="0%" x2="51%" y2="100%" gradientUnits="objectBoundingBox"><stop offset="0" stop-color="#575757" stop-opacity="1" /><stop offset="0.002769820754527549" stop-color="#FFFBF3" stop-opacity="1" /><stop offset="1" stop-color="#FFEDD5" stop-opacity="1" /></linearGradient></defs><g opacity="1" transform="translate(0 0)  rotate(0 17.5 17.5)"><g opacity="1" transform="translate(4 7)  rotate(0 13 11)"><path id="矩形" fill-rule="evenodd" fill="url(#linear_0)" transform="translate(2.75 10.37142857142872)  rotate(0 10.45 5.814285714285715)" opacity="1" d="M0.94,11.63L19.96,11.63C20.48,11.63 20.9,11.21 20.9,10.69L20.9,0L0,0L0,10.69C0,11.21 0.42,11.63 0.94,11.63Z " /><path id="矩形" fill-rule="evenodd" fill="url(#linear_1)" transform="translate(0.55 0)  rotate(0 12.65 5.185714285714285)" opacity="1" d="M1.09,10.37L24.21,10.37C24.48,10.37 24.74,10.25 24.92,10.04C25.1,9.84 25.18,9.56 25.14,9.29L23.95,1.08C23.86,0.46 23.33,0 22.71,0L19.87,0C19.72,0 19.57,0.06 19.45,0.16L18.92,0.63L6.03,0.63L5.63,0.2C5.51,0.07 5.34,0 5.17,0L2.59,0C1.97,0 1.44,0.46 1.35,1.08L0.16,9.29C0.12,9.56 0.2,9.84 0.38,10.04C0.56,10.25 0.82,10.37 1.09,10.37Z " /><path id="路径" fill-rule="evenodd" fill="url(#linear_2)" transform="translate(8.25 6.442857142857429)  rotate(0 4.95 4.4)" opacity="1" d="M0.27,3.94L2.1,5.4C2.23,5.5 2.31,5.75 2.28,5.9L1.72,8.08C1.65,8.36 1.73,8.53 1.81,8.62C1.9,8.73 2.05,8.8 2.21,8.8C2.34,8.8 2.47,8.76 2.61,8.68L4.67,7.51C4.74,7.47 4.84,7.45 4.95,7.45C5.06,7.45 5.16,7.47 5.23,7.51L7.29,8.68C7.43,8.76 7.56,8.8 7.69,8.8C7.85,8.8 8,8.73 8.09,8.62C8.17,8.53 8.25,8.36 8.18,8.08L7.62,5.9C7.59,5.75 7.67,5.5 7.8,5.4L9.63,3.94C9.96,3.68 9.91,3.42 9.88,3.33C9.84,3.23 9.72,3 9.29,2.96L6.88,2.79C6.72,2.77 6.49,2.62 6.43,2.48L5.5,0.41C5.34,0.04 5.06,0 4.95,0C4.84,0 4.56,0.04 4.4,0.41L3.47,2.48C3.41,2.62 3.18,2.77 3.02,2.79L0.61,2.96C0.18,3 0.06,3.23 0.02,3.33C-0.01,3.42 -0.06,3.68 0.27,3.94Z " /></g></g></svg>