<svg xmlns="http://www.w3.org/2000/svg" xmlns:xlink="http://www.w3.org/1999/xlink" width="35" height="35" viewBox="0 0 35 35" fill="none"><defs><linearGradient id="linear_0" x1="50%" y1="0%" x2="51%" y2="100%" gradientUnits="objectBoundingBox"><stop offset="0" stop-color="#1BC865" stop-opacity="1" /><stop offset="1" stop-color="#10D3D8" stop-opacity="1" /></linearGradient><linearGradient id="linear_1" x1="50%" y1="0%" x2="51%" y2="100%" gradientUnits="objectBoundingBox"><stop offset="0" stop-color="#46ED88" stop-opacity="1" /><stop offset="1" stop-color="#88D5A9" stop-opacity="1" /></linearGradient><filter id="filter_8" x="1.752380952380952" y="13.14285714285714" width="7.0095238095238095" height="9.638095238095238" filterUnits="userSpaceOnUse" color-interpolation-filters="sRGB"></filter><linearGradient id="linear_2" x1="50%" y1="0%" x2="51%" y2="100%" gradientUnits="objectBoundingBox"><stop offset="0" stop-color="#46ED88" stop-opacity="1" /><stop offset="1" stop-color="#88D5A9" stop-opacity="1" /></linearGradient><filter id="filter_10" x="14.01904761904762" y="13.14285714285714" width="7.009523809523808" height="9.638095238095238" filterUnits="userSpaceOnUse" color-interpolation-filters="sRGB"></filter></defs><g opacity="1" transform="translate(0 0)  rotate(0 17.5 17.5)"><g opacity="1" transform="translate(6 7)  rotate(0 11.5 11.5)"><path id="路径" fill-rule="evenodd" fill="url(#linear_0)" transform="translate(0 0)  rotate(0 11.39047619047619 10.076190476190474)" opacity="1" d="M10.51,0L10.34,0C4.61,0.09 0,4.77 0,10.51L0,18.4L0,18.49C0.05,19.41 0.81,20.15 1.75,20.15C2.72,20.15 3.5,19.37 3.5,18.4L3.5,10.51L3.51,10.38C3.58,6.57 6.69,3.5 10.51,3.5L12.4,3.51C16.21,3.58 19.28,6.69 19.28,10.51L19.28,18.4L19.28,18.49C19.32,19.41 20.09,20.15 21.03,20.15C22,20.15 22.78,19.37 22.78,18.4L22.78,10.51L22.78,10.34C22.69,4.61 18.02,0 12.27,0L10.51,0Z " /><path id="路径" fill-rule="evenodd" fill="url(#linear_1)" transform="translate(1.752380952380952 13.14285714285714)  rotate(0 3.5047619047619043 4.819047619047618)" opacity="1" d="M0.88,0C0.39,0 0,0.39 0,0.88L0,7.01C0,8.46 1.18,9.64 2.63,9.64L6.13,9.64C6.62,9.64 7.01,9.25 7.01,8.76L7.01,0.88C7.01,0.39 6.62,0 6.13,0L0.88,0Z " /><path id="路径" fill-rule="evenodd" fill="url(#linear_2)" transform="translate(14.01904761904762 13.14285714285714)  rotate(0 3.5047619047619043 4.819047619047618)" opacity="1" d="M0,0.88L0,8.76C0,9.25 0.39,9.64 0.88,9.64L4.38,9.64C5.83,9.64 7.01,8.46 7.01,7.01L7.01,0.88C7.01,0.39 6.62,0 6.13,0L0.88,0C0.39,0 0,0.39 0,0.88Z " /><path id="路径" fill-rule="evenodd" style="fill:#FFFFFF" transform="translate(5.695238095238095 14.89523809523809)  rotate(0 0.876190476190476 3.0666666666666664)" opacity="1" d="M0,0.81L0,0.88L0,5.26C0,5.74 0.39,6.13 0.88,6.13C1.34,6.13 1.72,5.78 1.75,5.32L1.75,5.26L1.75,0.88C1.75,0.39 1.36,0 0.88,0C0.41,0 0.04,0.36 0,0.81Z " /><path id="路径" fill-rule="evenodd" style="fill:#FFFFFF" transform="translate(17.08571428571428 14.89523809523809)  rotate(0 0.876190476190476 3.0666666666666664)" opacity="1" d="M0,0.81L0,0.88L0,5.26C0,5.74 0.39,6.13 0.88,6.13C1.34,6.13 1.72,5.78 1.75,5.32L1.75,5.26L1.75,0.88C1.75,0.39 1.36,0 0.88,0C0.41,0 0.04,0.36 0,0.81Z " /></g></g></svg>