<svg xmlns="http://www.w3.org/2000/svg" xmlns:xlink="http://www.w3.org/1999/xlink" width="35" height="35" viewBox="0 0 35 35" fill="none"><g opacity="1" transform="translate(0 0)  rotate(0 17.5 17.5)"><g opacity="1" transform="translate(8 5)  rotate(0 10.5 13)"><path id="路径" fill-rule="evenodd" style="fill:#FF5851" transform="translate(0.9699449870389619 6.750668752613253)  rotate(0 8.659941727151566 9.62215067783572)" opacity="1" d="M15.26,13.7C16.19,10.81 17.46,8.37 17.31,5.84C17.13,2.89 15.65,0.03 11.94,0.02C8.24,0 5.23,0 5.23,0C5.23,0 2.86,-0.11 1.3,1.38C-0.26,2.86 -0.29,4.12 0.55,5.42C1.38,6.72 3.19,6.65 3.06,9.62C2.92,12.6 1.66,12.62 1.47,14.39C1.28,16.16 1.72,18.56 5.93,19.17C10.14,19.78 14.33,16.58 15.26,13.7Z " /><path id="路径" fill-rule="evenodd" style="fill:#FD7071" transform="translate(0.9699449870389634 6.750668752613253)  rotate(0 7.69771903953013 9.62215067783572)" opacity="1" d="M1.3,1.38C-0.26,2.86 -0.29,4.12 0.55,5.42C1.38,6.72 3.19,6.65 3.05,9.62C2.92,12.6 1.66,12.62 1.47,14.39C1.28,16.16 1.72,18.56 5.93,19.17C10.14,19.78 12.41,16.58 13.33,13.7C14.26,10.81 15.53,8.37 15.38,5.84C15.21,2.89 13.72,0.03 10.02,0.02C6.32,0 5.23,0 5.23,0C5.23,0 2.86,-0.11 1.3,1.38Z " /><path id="路径" fill-rule="evenodd" style="fill:#FD7375" transform="translate(0.007792501214378425 0.01500763185576007)  rotate(0 2.886668076020078 2.8866680975274317)" opacity="1" d="M2.89,5.77C4.48,5.77 5.77,4.48 5.77,2.89C5.77,1.86 5.22,0.9 4.33,0.39C3.44,-0.13 2.34,-0.13 1.44,0.39C0.55,0.9 0,1.86 0,2.89C0,4.48 1.29,5.77 2.89,5.77Z " /><path id="路径" fill-rule="evenodd" style="fill:#FD7375" transform="translate(6.743351354031737 0.01500767487046605)  rotate(0 2.4055567256314787 2.405556725631477)" opacity="1" d="M2.41,4.81C3.73,4.81 4.81,3.73 4.81,2.41C4.81,1.08 3.73,0 2.41,0C1.08,0 0,1.08 0,2.41C0,3.73 1.08,4.81 2.41,4.81Z " /><path id="路径" fill-rule="evenodd" style="fill:#FD7375" transform="translate(12.51668750607189 1.939453063269108)  rotate(0 1.924445388398639 1.924445388398639)" opacity="1" d="M1.92,3.85C2.99,3.85 3.85,2.99 3.85,1.92C3.85,0.86 2.99,0 1.92,0C0.86,0 0,0.86 0,1.92C0,2.99 0.86,3.85 1.92,3.85Z " /><path id="路径" fill-rule="evenodd" style="fill:#FD7375" transform="translate(17.32780097043133 4.825926250987751)  rotate(0 1.4433340512250825 1.4435289263162185)" opacity="1" d="M0.72,2.69C1.17,2.95 1.72,2.95 2.17,2.69C2.61,2.44 2.89,1.96 2.89,1.44C2.89,0.93 2.61,0.45 2.17,0.19C1.72,-0.06 1.17,-0.06 0.72,0.19C0.28,0.45 0,0.93 0,1.44C0,1.96 0.28,2.44 0.72,2.69Z " /></g></g></svg>