<?xml version="1.0" standalone="no"?><!DOCTYPE svg PUBLIC "-//W3C//DTD SVG 1.1//EN" "http://www.w3.org/Graphics/SVG/1.1/DTD/svg11.dtd"><svg t="1677158939805" class="icon" viewBox="0 0 1024 1024" version="1.1" xmlns="http://www.w3.org/2000/svg" p-id="5755" xmlns:xlink="http://www.w3.org/1999/xlink" width="200" height="200"><path d="M296.2 738.3c-1.4-1.9-2.9-4.3-4.3-6.2-78-32.8-132.6-109.8-132.2-200.6 0-16.1 1.8-31.7 5.1-46.7-4.1-13.1-6.9-26.8-8.3-40.8-11 27.6-16.7 57.1-16.8 87.4-0.5 94 53.8 178.4 138.9 216.7 0.4 0.5 0.7 1 1.1 1.6 27 41 61.4 75.6 102.3 103 38 25.5 79.7 43.3 124.2 53.2-3-8.3-6.9-16.1-11.5-23.5C412.3 860 342 808 296.2 738.3z" fill="#4BBB58" p-id="5756"></path><path d="M292 732.1c1.4 1.9 2.9 4.3 4.3 6.2C342 808 412.3 860 494.8 882.5c-9.5-14.8-22.1-27.4-36.9-36.8-2.4-1.4-21.4-11.9-24.7-13.3-67.6-33.3-114.2-102.7-114.2-183 0-7 0.4-13.9 1.2-20.8 0.1-1.1-0.6-2.2-1.7-2.4-73-16.2-131.6-70.8-153.6-141.3-3.3 15-5.1 30.6-5.1 46.7-0.5 90.7 54.2 167.7 132.2 200.5z" fill="#7DE184" p-id="5757"></path><path d="M449.6 274.9c-0.6-1.2-1.2-2.4-1.7-3.7-5.3 2.7-10.5 5.5-15.6 8.6 5.7-2 11.4-3.6 17.3-4.9zM421.3 648.1c2.4 2 4.8 4 7.1 6.1-14.7-17.4-31.3-33.6-49.6-48.4-1-0.8-1.5-1.1-1.7-1.3l-1.2-0.8-0.5-0.4c-3.7-2.9-7.2-6-10.6-9.1 3.8 4.9 8 10.1 12 14.4 11.4 11.8 41.1 36.7 44.5 39.5z" fill="#4BBB58" p-id="5758"></path><path d="M532 914.2c-5.1 6.4-15.3 4.1-17.1-3.8l-4.6-19.7c0.1-1.5 0.2-3 0.4-4.5l-6.9 1.2c0.1-3.6 1.6-16.5 2.1-23.7-10.1-13.6-22.7-25.5-37.4-34.8l-0.2-0.1-0.2-0.1c-1.8-1.1-20.5-11.5-26.4-14.2-30.3-15-55.9-38-74.1-66.5-18.7-29.4-28.6-63.4-28.6-98.4 0-6.8 0.4-13.6 1.3-20.3l2.3-18.2-18-3.8c-41.5-8.8-79.3-31.9-106.5-64.9-27.5-33.5-42.6-75.7-42.6-119 0-37.7 11.1-73.8 32.2-104.5 20.5-29.9 49.3-53.1 83.3-67.3l2.7-1.1 10.7-8.7v-9.5c0-66.3 53.9-120.3 120.3-120.3 14.7 0 29.3 2.7 42.8 8 4.6-5.5 9.5-10.7 14.8-15.4-17.5-8-37.2-12.5-57.6-12.5-77.2 0-139.7 62.2-140.2 139.2 0 0.7-0.3 1.3-0.8 1.7-0.2 0.1-0.3 0.2-0.5 0.3-75 31.4-127.5 103.7-127.5 190.2 0 7.1 0.4 14.1 1.1 21 1.4 14.1 4.2 27.7 8.3 40.8 22 70.5 80.7 125.1 153.6 141.3 1.1 0.2 1.8 1.3 1.7 2.4-0.8 6.9-1.2 13.9-1.2 20.8 0 80.3 46.6 149.8 114.1 183 3.3 1.4 22.3 11.9 24.7 13.3 14.8 9.4 27.4 22 36.9 36.8 4.7 7.3 8.6 15.2 11.5 23.5 2.1 6 3.8 12.1 4.9 18.5 1.1 5.9 5.9 10.4 11.8 11.1 0.1 0 0.3 0 0.4 0.1 21.7 2.2 25.2-8.2 26.6-21.4 0.2-2 0.4-4 0.5-6-5.5 1.3-11.1 2.5-16.7 3.5l-1.9 2z" fill="#4BBB58" p-id="5759"></path><path d="M428.4 654.2c-2.3-2.1-4.7-4.1-7.1-6.1-3.3-2.8-33-27.7-44.4-39.6-4-4.2-8.3-9.4-12-14.4-38.1-35.3-59.8-84.6-59.8-137.2 0-42.4 14.6-84 41.2-117.1 22.4-27.9 52.5-48.8 86-60.1 5-3 10.2-5.9 15.6-8.6-8.9-19.5-13.5-39.8-13.5-60.3-0.1-34.5 12.4-66.3 33-91.2-13.5-5.2-28.1-8-42.8-8-66.3 0-120.3 53.9-120.3 120.3v9.5l-10.7 8.7-2.7 1.1c-34 14.2-62.8 37.5-83.3 67.3-21.1 30.7-32.2 66.8-32.2 104.5 0 43.3 15.1 85.5 42.6 119 27.1 33.1 65 56.1 106.5 64.9l18 3.8-2.3 18.2c-0.8 6.7-1.3 13.6-1.3 20.3 0 35 9.9 69 28.6 98.4 18.2 28.5 43.8 51.5 74.1 66.5 5.9 2.7 24.6 13.1 26.4 14.2l0.2 0.1 0.2 0.1c14.6 9.3 27.3 21.2 37.4 34.8 0.1-1.7 0.2-3.1 0.2-4 0.2-73.8-27.6-146-77.6-205.1z" fill="#7DE184" p-id="5760"></path><path d="M467.4 119.7c-20.6 24.9-33.1 56.8-33 91.2 0 20.5 4.6 40.8 13.5 60.3 0.6 1.2 1.1 2.4 1.7 3.7-5.8 1.3-11.6 3-17.3 4.9-33.5 11.3-63.6 32.2-86 60.1-26.6 33.1-41.3 74.6-41.3 117 0 52.6 21.6 101.8 59.8 137.2 3.4 3.2 6.9 6.2 10.6 9.1l0.5 0.4 1.2 0.8c0.2 0.1 0.7 0.5 1.7 1.3 18.4 14.8 35 31.1 49.6 48.4 50 59.1 77.8 131.3 77.8 205.4 0 0.9-0.1 2.3-0.2 4-0.5 7.2-2 20.2-2.1 23.7l6.9-1.2c1.8-18.8 6.7-37.3 14.2-54.6-8.1-91.8-55.8-178.5-133.6-241.3-1.4-1.1-2.3-1.8-3.1-2.3l-0.3-0.2c-39.9-31.9-62.8-79.5-62.8-130.7 0-37.9 13.1-75 36.8-104.5 23.4-29.2 56.2-49.8 92.2-58.1l24.5-5.6-11-22.6c-8.7-17.9-13.2-36.5-13.2-55.2-0.2-66.6 53.8-121.9 120.3-123.3h2.7c31.5 0 61.5 11.9 84.4 33.4 22.8 21.4 36.5 50.4 38.7 81.6l0.9 12.8 12 4.5c35.3 13.3 65.5 36.6 87.4 67.5 14.4 20.3 24.4 42.9 29.7 66.8V350c0-2.4 3.1-3.5 4.5-1.4l19.1 27.5c-3.3-36.1-15.9-70.4-37-100.2-24.2-34.2-57.6-60-96.7-74.7-2.5-36.3-18.5-69.9-45-94.8-26.6-25-61.5-38.8-98.1-38.8h-3.1c-35.3 0.7-67.5 14.5-92.2 36.6-5.2 4.8-10.1 10-14.7 15.5z" fill="#4BBB58" p-id="5761"></path><path d="M713.5 219.9l-12-4.5-0.9-12.8c-2.2-31.2-15.9-60.2-38.7-81.6C639 99.4 609 87.6 577.5 87.6h-2.7c-66.5 1.4-120.6 56.7-120.5 123.3 0 18.8 4.5 37.3 13.2 55.2l11 22.6-24.5 5.6c-36 8.3-68.7 28.9-92.2 58.1C338.1 382 325 419.1 325 456.9c0 51.2 22.9 98.8 62.8 130.7l0.3 0.2c0.8 0.6 1.7 1.2 3.1 2.3 77.8 62.8 125.5 149.5 133.6 241.3 3.2-7.4 6.9-14.6 11-21.5 14.2-23.4 33.8-43.7 56.8-58.6l1.6-1.1 1.4-1.4 1.8-1.2c36-23.3 63.9-58 80.6-100.3 7.9-20.1 12.5-41.6 13.9-63.7l0.8-13.5 13.6-4.5c67.6-28.4 114.5-91.4 122.6-164.6l2-17.8-0.3-29.1c-5.3-23.9-15.3-46.5-29.7-66.8-21.8-30.8-52-54.1-87.4-67.4z m21.1 180.4c-5 0-9.1-3.5-9.9-8.4-4.1-25.2-13.4-48.6-26.7-69.3-4.3-6.6 0.5-15.3 8.4-15.3 3.4 0 6.5 1.7 8.4 4.5 14.7 22.9 25 48.9 29.6 76.7 1 6.2-3.6 11.8-9.8 11.8z" fill="#7DE184" p-id="5762"></path><path d="M865.3 391.3l-6-8-5-7.3-19.1-27.5c-1.4-2-4.5-1-4.5 1.4v4.2l0.3 29.1-2 17.8c-8.1 73.2-55 136.2-122.6 164.6l-13.6 4.5-0.8 13.5c-1.3 22.1-6 43.6-13.9 63.7-16.7 42.3-44.6 77-80.6 100.3l-1.8 1.2-1.4 1.4-1.6 1.1c-23 14.9-42.6 35.1-56.8 58.6-4.2 6.9-7.8 14.1-11 21.5-7.5 17.3-12.3 35.8-14.2 54.6-0.1 1.5-0.3 3-0.4 4.5l4.6 19.7c1.8 7.9 12 10.2 17.1 3.8l1.9-2.4c5.6-1 11.1-2.2 16.7-3.5 43.1-10.1 83.6-27.7 120.6-52.4 40.9-27.4 75.3-62 102.3-103 0.4-0.5 0.8-1.1 1.1-1.6 85.1-38.3 139.4-122.7 138.9-216.7 0-51.7-16.7-101.2-48.2-143.1zM761.4 735.2c-1.4 1.9-2.9 4.3-4.3 6.2-50.9 77.5-132.2 133.1-226.8 150.7 3.8-52.3 32.3-97.5 73.7-124.1l1.6-1.2c0.9-0.5 1.8-1.3 2.7-2.3 40.4-26.1 70.3-64.1 88.4-109.7 8.6-21.9 13.8-45.6 15.2-69.9l1.4-0.5C786.5 554 839.8 485 848.8 403.3h0.5c27.6 36.6 44.2 81.8 44.2 131.2 0.5 90.8-54.2 167.9-132.1 200.7z" fill="#4BBB58" p-id="5763"></path><path d="M849.3 403.3h-0.5c-9 81.8-62.3 150.7-135.5 181.1l-1.4 0.5c-1.4 24.3-6.7 48-15.2 69.9-18.1 45.6-48 83.6-88.4 109.7-0.9 1-1.8 1.8-2.7 2.3L604 768c-41.4 26.6-69.9 71.8-73.7 124.1 94.6-17.6 175.9-73.2 226.8-150.7 1.4-1.9 2.9-4.3 4.3-6.2 78-32.8 132.6-109.8 132.2-200.6-0.1-49.5-16.7-94.7-44.3-131.3z" fill="#7DE184" p-id="5764"></path><path d="M714.8 311.9c-1.8-2.8-5-4.5-8.4-4.5-7.9 0-12.6 8.7-8.4 15.3 13.3 20.6 22.5 44.1 26.7 69.3 0.8 4.8 4.9 8.4 9.8 8.4h0.1c6.2 0 10.8-5.5 9.8-11.6-4.6-28-14.9-54-29.6-76.9z" fill="#FFFFFF" p-id="5765"></path></svg>